# xmcd
#
# Track frame offsets: 
#        150
#        15032
#        32422
#        46730
#        58130
#        73025
#        89017
#        120880
#        141522
#        155252
#        165627
#        184217
#        194597
#        206260
#        229367
#        244517
#        258142
#        288270
#
# Disc length: 4319 seconds
#
# Revision: 11
# Processed by: cddbd v1.5.2PL0 Copyright (c) Steve Scherf et al.
# Submitted via: ExactAudioCopyFreeDBPlugin 1.0
#
DISCID=ef10dd12
DTITLE=Various Artist - Mojo Club Vol5 - sunshine of your love
DYEAR=1996
DGENRE=Jazz+Funk
TTITLE0=Ella Fitzgerald - Sunshine Of Your Love
TTITLE1=Johnny Almond Music Machine - Solar Level
TTITLE2=Dakota Station - Young Generation
TTITLE3=Maria Bethania - Mano Caetano
TTITLE4=Edu Lobo - Ponteio
TTITLE5=Jonny Teupen - Hold Me, I've Got To Leave You
TTITLE6=Jess Roden - On Broadway
TTITLE7=Don Sebesky - Guru-vin'
TTITLE8=Lee Evans - Cinnamon and Clove
TTITLE9=Trio Rio 65 - Tema Rio 65
TTITLE10=John Cameron - Troublemaker
TTITLE11=Galt MacDermot - Hair
TTITLE12=Gilberto Gil - Bat Macumba
TTITLE13=Johnny Bristol - Woman, Woman
TTITLE14=The Gimmicks - California Soul
TTITLE15=La Clave - Move Your Hands
TTITLE16=Charles Earland - Revelation
TTITLE17=Julie Driscoll - Season Of The Witch
EXTD=YEAR: 1996
EXTT0=
EXTT1=
EXTT2=
EXTT3=
EXTT4=
EXTT5=
EXTT6=
EXTT7=
EXTT8=
EXTT9=
EXTT10=
EXTT11=
EXTT12=
EXTT13=
EXTT14=
EXTT15=
EXTT16=
EXTT17=
PLAYORDER=
